<?xml version="1.0" encoding="UTF-8"?>
<svg xmlns="http://www.w3.org/2000/svg" viewBox="0 0 1280 1024">
  <defs>
    <style>
      .cls-1 {
        fill: none;
        stroke: #000;
        stroke-linecap: round;
        stroke-linejoin: round;
        stroke-width: 5px;
      }
    </style>
  </defs>
  <g id="Layer_1" data-name="Layer 1">
    <g>
      <path d="m.82,296.88h36.75v63.75h44.5v-63.75h36.75v165h-36.75v-69h-44.5v69H.82v-165Z"/>
      <path d="m175.18,398.38v-101.5h36.75v105.25c0,20,7.25,31,22.75,31s23-11,23-31v-105.25h35.5v101.5c0,43-19,66.5-58.5,66.5s-59.5-23.5-59.5-66.5Z"/>
      <path d="m386.55,296.88h44l50.75,165h-39l-9.75-39.5h-49.25l-10,39.5h-37.5l50.75-165Zm38.5,96.75l-3.75-15.5-13-53.25h-1c-4,17.5-8.75,36.75-12.75,53.25l-3.75,15.5h34.25Z"/>
      <path d="m524.41,296.88h37.5l34.5,82.75,14,36.25h1c-1.75-17.5-5.25-40.5-5.25-59.75v-59.25h35.25v165h-37.5l-34.5-83-14-35.75h-1c1.75,18.25,5.25,40,5.25,59.5v59.25h-35.25v-165Z"/>
    </g>
    <g>
      <path d="m375.33,877.37h52.36c31.02,0,56.1,11.44,56.1,46.64s-25.74,49.06-56.1,49.06h-20.02v49.5h-32.34v-145.2Zm50.38,69.96c17.82,0,26.18-8.14,26.18-23.32s-9.02-20.9-26.18-20.9h-18.04v44.22h18.04Z"/>
      <path d="m514.59,877.37h32.34v117.92h63.8v27.28h-96.14v-145.2Z"/>
      <path d="m669.69,877.37h38.72l44.66,145.2h-34.32l-8.58-34.76h-43.34l-8.8,34.76h-33l44.66-145.2Zm33.88,85.14l-3.3-13.64-11.44-46.86h-.88c-3.52,15.4-7.7,32.34-11.22,46.86l-3.3,13.64h30.14Z"/>
      <path d="m769.57,877.37h33l30.36,72.82,12.32,31.9h.88c-1.54-15.4-4.62-35.64-4.62-52.58v-52.14h31.02v145.2h-33l-30.36-73.04-12.32-31.46h-.88c1.54,16.06,4.62,35.2,4.62,52.36v52.14h-31.02v-145.2Z"/>
      <path d="m901.57,877.37h33l30.36,72.82,12.32,31.9h.88c-1.54-15.4-4.62-35.64-4.62-52.58v-52.14h31.02v145.2h-33l-30.36-73.04-12.32-31.46h-.88c1.54,16.06,4.62,35.2,4.62,52.36v52.14h-31.02v-145.2Z"/>
      <path d="m1039.72,877.37h94.6v27.28h-62.26v29.7h52.8v27.06h-52.8v33.88h64.46v27.28h-96.8v-145.2Z"/>
      <path d="m1166.44,877.37h50.82c30.36,0,55.44,10.56,55.44,45.1,0,21.34-10.34,34.98-25.52,41.8l32.34,58.3h-36.3l-27.5-52.58h-16.94v52.58h-32.34v-145.2Zm48.18,66.88c17.16,0,26.18-7.48,26.18-21.78s-9.02-19.36-26.18-19.36h-15.84v41.14h15.84Z"/>
    </g>
  </g>
  <g id="Layer_2" data-name="Layer 2">
    <polygon class="cls-1" points="584.79 81.37 835.74 175.72 999.38 480.89 742.86 380.64 584.79 81.37"/>
    <polygon class="cls-1" points="742.86 380.64 584.79 758.97 836.99 848.13 999.38 480.89 742.86 380.64"/>
    <polygon class="cls-1" points="742.86 380.64 908.34 7.6 1160.38 102.96 999.38 480.89 742.86 380.64"/>
    <polygon class="cls-1" points="742.86 380.64 909 685.29 1160.38 783.28 999.38 480.89 742.86 380.64"/>
  </g>
</svg>